<?xml version="1.0" encoding="UTF-8" standalone="no"?>
<svg id="svg2" xmlns:rdf="http://www.w3.org/1999/02/22-rdf-syntax-ns#" xmlns="http://www.w3.org/2000/svg" viewBox="0 0 642.03 362.95" version="1.1" xmlns:cc="http://creativecommons.org/ns#" xmlns:dc="http://purl.org/dc/elements/1.1/">
 <metadata id="metadata43">
  <rdf:RDF>
   <cc:Work rdf:about="">
    <dc:format>image/svg+xml</dc:format>
    <dc:type rdf:resource="http://purl.org/dc/dcmitype/StillImage"/>
    <dc:title/>
   </cc:Work>
  </rdf:RDF>
 </metadata>
 <defs id="defs4"></defs>
 <g id="layer1" font-style="normal" font-weight="normal" fill="#000" transform="translate(-65.333011,-132.70069)">
  <g id="text2816" transform="matrix(3.6346747,0,0,1.40067,-1170.7999,-126.74347)" font-stretch="normal" font-size="300px" font-variant="normal" font-family="DejaVu Sans">
   <path id="path2821" d="m516.46,206.03-11.395,50.673c-9.9611-9.2772,9.9657-29.192-20.539-40.273-11.231-4.5896-23.194-6.8846-35.889-6.8848-25,0.0002-44.141,7.6662-57.422,22.998-13.281,15.235-12.974,37.305-12.974,66.211-0.00004,28.809-0.30745,50.879,12.974,66.211,13.281,15.234,32.422,22.852,57.422,22.852,12.695,0.00002,24.658-2.2949,35.889-6.8848,28.837-11.081,11.689-33.159,21.651-42.437l10.283,52.544c-10.352,7.0313-21.338,12.305-32.959,15.82-11.524,3.5156-23.731,5.2734-36.621,5.2734-33.106,0-59.18-10.107-78.223-30.322-19.043-20.312-28.564-47.998-28.564-83.057-0.00001-35.156,9.5215-62.842,28.564-83.057,19.043-20.312,45.117-30.469,78.223-30.469,13.086,0.00022,25.39,1.758,36.914,5.2734,11.621,3.4182,22.51,8.594,32.666,15.527"/>
  </g>
  <g id="text2925" style="text-anchor:middle;text-align:center;" font-size="174.75750732px" font-stretch="normal" font-variant="normal" font-family="DejaVu Sans">
   <path id="path2934" d="m242.46,194.69,15.701-4.0073,0,162.58-15.701,0,0-162.58"/>
   <path id="path2936" d="m334.36,305.22c-12.686,0.00005-21.475,1.4507-26.367,4.3519-4.8923,2.9013-7.3385,7.8505-7.3384,14.848-0.00003,5.575,1.8204,10.012,5.4612,13.312,3.6976,3.2426,8.7037,4.8639,15.018,4.8639,8.7037,0.00001,15.672-3.0719,20.906-9.2157,5.2904-6.2007,7.9357-14.421,7.9358-24.661v-3.4986h-15.616m31.316-6.4851,0,118.28-15.701,0,0-78.262c-3.584,5.8025-8.0496,10.097-13.397,12.885-5.3474,2.7306-11.889,4.0959-19.626,4.0959-9.7846-0.00001-17.578-2.7306-23.381-8.1918-5.7456-5.518-8.6184-12.885-8.6184-22.101-0.00001-10.752,3.5839-18.858,10.752-24.319,7.2246-5.4611,24.6-7.3515,32.255-8.1918l21.107-2.3167c0.0939,0,0.0313-1.9743,0.0313-1.9743-0.00008-7.2246-1.5127-10.045-6.2912-13.97-4.7217-3.982-11.378-5.9731-19.967-5.9732-5.4612,0.00008-10.78,0.65428-15.957,1.9626-5.1768,1.3085-10.154,3.2711-14.933,5.8878v-14.506c5.7456-2.2185,11.321-3.8682,16.725-4.9492,5.4042-1.1376,10.666-1.7065,15.786-1.7066,13.824,0.0001,24.149,3.584,30.975,10.752,6.8264,7.1679,10.24,18.033,10.24,32.596"/>
   <path id="path2938" d="m453.48,272.37c-1.7636-1.0239-3.6977-1.7634-5.8025-2.2186-2.048-0.5119-4.3235-0.76789-6.8265-0.76798-8.8744,0.00009-15.701,2.9013-20.479,8.7038-4.7217,5.7457-7.0825,14.023-7.0825,24.831v50.345h-15.786v-191.13h15.786v110.41c3.2994-5.8024,7.5944-10.097,12.885-12.885,5.2905-2.8443,11.719-4.2664,19.285-4.2665,1.0808,0.0001,2.2754,0.0854,3.5839,0.25599,1.3083,0.11387,2.759,0.31298,4.3519,0.59732l0.0853,16.128"/>
   <path id="path2940" d="m468.5,315.54,0-57.854,15.701,0,0,57.257c-0.00003,9.0451,1.7635,15.843,5.2905,20.394,3.527,4.4941,8.8175,6.7412,15.872,6.7411,8.4761,0.00001,15.16-2.7021,20.053-8.1064,4.9491-5.4043,7.4237-12.771,7.4238-22.101v-54.185h15.701v160.74h-15.701v-79.849c-3.8115,5.8025-8.2487,10.126-13.312,12.97-5.0061,2.7875-10.837,4.1812-17.493,4.1812-10.979-0.00001-19.313-3.4132-25.002-10.24-5.6887-6.8264-8.5331-16.81-8.5331-29.951m39.508-60.158"/>
   <path id="path2942" d="m641.98,260.51,0,14.848c-4.4373-2.2754-9.0451-3.982-13.824-5.1198-4.7786-1.1377-9.7278-1.7065-14.848-1.7066-7.7936,0.00009-13.653,1.1947-17.578,3.5839-3.8684,2.3893-5.8025,5.9732-5.8025,10.752-0.00003,3.6408,1.3937,6.5136,4.1812,8.6184,2.7874,2.048,8.3908,4.0106,16.81,5.8878l5.3758,1.1946c11.15,2.3893,19.057,5.7741,23.722,10.154,4.7216,4.3235,7.0824,10.382,7.0824,18.175-0.00008,8.8744-3.5271,15.9-10.581,21.077-6.9972,5.1767-16.64,7.7651-28.927,7.7651-5.1199-0.00001-11.936-0.66566-24.307-4.1658s-30.133-9.3337-36.277-11.325l-0.12523-16.056c5.8025,3.015,29.552,10.421,38.816,13.933,9.2634,3.5112,16.717,4.4727,22.235,4.4727,7.3953,0.00001,13.084-1.2515,17.066-3.7546,3.982-2.5599,5.9731-6.1438,5.9732-10.752-0.00007-4.2665-1.4507-7.5375-4.3519-9.813-2.8444-2.2754-9.1304-4.4656-18.858-6.5705l-5.4612-1.28c-9.7277-2.0479-16.753-5.1767-21.077-9.3864-4.3234-4.2665-6.4852-10.097-6.4852-17.493-0.00001-8.9881,3.1857-15.928,9.557-20.821,6.3714-4.8922,15.416-7.3384,27.135-7.3384,5.8024,0.0001,11.264,0.42675,16.384,1.28,5.1198,0.85341,9.8414,2.1334,14.165,3.8399"/>
  </g>
  <g id="text2965" font-family="Bitstream Vera Sans" font-size="42.97882843px">
   <path id="path2970" d="m96.639,457.8,0,4.47c-1.4271-1.3291-2.952-2.3224-4.5749-2.98-1.6089-0.65753-3.3228-0.98631-5.1415-0.98633-3.5816,0.00002-6.3237,1.0983-8.2264,3.2948-1.9027,2.1825-2.8541,5.3444-2.8541,9.4856-0.000007,4.1272,0.95135,7.2891,2.8541,9.4856,1.9027,2.1825,4.6448,3.2738,8.2264,3.2738,1.8187,0,3.5326-0.32877,5.1415-0.98633,1.6229-0.65755,3.1478-1.6509,4.5749-2.98v4.428c-1.483,1.0073-3.057,1.7628-4.7218,2.2665-1.6509,0.50366-3.3997,0.75549-5.2464,0.75549-4.7428,0-8.4783-1.448-11.206-4.3441-2.7282-2.91-4.0922-6.8763-4.0922-11.899-0.000003-5.0366,1.3641-9.0029,4.0922-11.899,2.7281-2.91,6.4636-4.365,11.206-4.365,1.8747,0.00003,3.6375,0.25186,5.2884,0.75549,1.6648,0.4897,3.2248,1.2312,4.6798,2.2245"/>
   <path id="path2972" d="m112.17,465.92c-2.0706,0.00003-3.7075,0.81147-4.9107,2.4344-1.2032,1.6089-1.8048,3.8194-1.8048,6.6315-0.00001,2.8121,0.59458,5.0296,1.7838,6.6525,1.2032,1.6089,2.8471,2.4134,4.9317,2.4134,2.0566,0,3.6865-0.81145,4.8897-2.4344,1.2032-1.6229,1.8048-3.8334,1.8048-6.6315-0.00002-2.7841-0.60161-4.9876-1.8048-6.6105-1.2032-1.6369-2.8331-2.4553-4.8897-2.4553m0-3.2738c3.3577,0.00002,5.9949,1.0913,7.9116,3.2738s2.875,5.2045,2.875,9.0658c-0.00003,3.8474-0.95838,6.8693-2.875,9.0658-1.9167,2.1825-4.5539,3.2738-7.9116,3.2738-3.3717,0-6.0159-1.0913-7.9326-3.2738-1.9027-2.1965-2.8541-5.2184-2.8541-9.0658,0-3.8614,0.95135-6.8833,2.8541-9.0658,1.9167-2.1825,4.5609-3.2738,7.9326-3.2738"/>
   <path id="path2974" d="m148.87,472.53,0,14.186-3.8614,0,0-14.06c-0.00002-2.2245-0.43372-3.8893-1.3011-4.9946-0.86743-1.1052-2.1686-1.6578-3.9034-1.6579-2.0846,0.00002-3.7285,0.66457-4.9317,1.9936-1.2032,1.3291-1.8048,3.1409-1.8048,5.4353v13.284h-3.8824v-23.504h3.8824v3.6515c0.92336-1.413,2.0076-2.4693,3.2528-3.1688,1.2591-0.6995,2.7072-1.0493,4.344-1.0493,2.7002,0.00002,4.7428,0.83945,6.1278,2.5183,1.385,1.6649,2.0776,4.1202,2.0776,7.366"/>
   <path id="path2976" d="m160.44,456.54,0,6.6735,7.9536,0,0,3.001-7.9536,0,0,12.759c-0.00001,1.9167,0.25881,3.1479,0.77647,3.6935,0.53163,0.54563,1.6019,0.81845,3.2108,0.81844h3.9663v3.2318h-3.9663c-2.98,0-5.0366-0.55263-6.1698-1.6579-1.1332-1.1192-1.6998-3.1478-1.6998-6.0859v-12.759h-2.8331v-3.001h2.8331v-6.6735h3.8824"/>
   <path id="path2978" d="m193.59,474,0,1.8887-17.754,0c0.16788,2.6582,0.96534,4.6868,2.3924,6.0859,1.441,1.3851,3.4417,2.0776,6.0019,2.0776,1.483,0,2.917-0.18188,4.3021-0.54563,1.399-0.36375,2.7841-0.90938,4.1552-1.6369v3.6515c-1.3851,0.5876-2.8051,1.0353-4.2601,1.3431-1.455,0.30779-2.931,0.46169-4.428,0.46169-3.7495,0-6.7224-1.0913-8.919-3.2738-2.1825-2.1825-3.2738-5.1345-3.2738-8.856,0-3.8474,1.0353-6.8973,3.1059-9.1498,2.0846-2.2664,4.8897-3.3997,8.4153-3.3997,3.1618,0.00002,5.6591,1.0213,7.4919,3.0639,1.8467,2.0286,2.7701,4.7918,2.7701,8.2894m-3.8614-1.1332c-0.028-2.1126-0.6226-3.7984-1.7838-5.0576-1.1472-1.2591-2.6722-1.8887-4.5749-1.8887-2.1546,0.00003-3.8824,0.60861-5.1835,1.8258-1.2871,1.2172-2.0286,2.931-2.2245,5.1415l13.767-0.021"/>
   <path id="path2980" d="m219.47,472.53,0,14.186-3.8614,0,0-14.06c-0.00002-2.2245-0.43373-3.8893-1.3011-4.9946-0.86743-1.1052-2.1685-1.6578-3.9034-1.6579-2.0846,0.00002-3.7285,0.66457-4.9316,1.9936-1.2032,1.3291-1.8048,3.1409-1.8048,5.4353v13.284h-3.8824v-23.504h3.8824v3.6515c0.92337-1.413,2.0076-2.4693,3.2528-3.1688,1.2591-0.6995,2.7072-1.0493,4.3441-1.0493,2.7002,0.00002,4.7428,0.83945,6.1278,2.5183,1.385,1.6649,2.0776,4.1202,2.0776,7.366"/>
   <path id="path2982" d="m231.03,456.54,0,6.6735,7.9536,0,0,3.001-7.9536,0,0,12.759c-0.00001,1.9167,0.25882,3.1479,0.77647,3.6935,0.53163,0.54563,1.6019,0.81845,3.2108,0.81844h3.9663v3.2318h-3.9663c-2.98,0-5.0366-0.55263-6.1698-1.6579-1.1332-1.1192-1.6998-3.1478-1.6998-6.0859v-12.759h-2.8331v-3.001h2.8331v-6.6735h3.8824"/>
   <path id="path2984" d="m257.94,455.38,6.3167,0,7.9956,21.322,8.0375-21.322,6.3167,0,0,31.332-4.1342,0,0-27.512-8.0795,21.489-4.2601,0-8.0795-21.489,0,27.512-4.1132,0,0-31.332"/>
   <path id="path2986" d="m305.55,474.9c-3.1199,0.00001-5.2814,0.35677-6.4846,1.0703s-1.8048,1.9307-1.8048,3.6515c0,1.3711,0.44769,2.4623,1.3431,3.2738,0.90937,0.79746,2.1405,1.1962,3.6935,1.1962,2.1405,0,3.8544-0.75548,5.1415-2.2665,1.3011-1.525,1.9517-3.5466,1.9517-6.0649v-0.86041h-3.8404m7.7018-1.5949,0,13.41-3.8614,0,0-3.5676c-0.88142,1.427-1.9797,2.4833-3.2948,3.1688-1.3151,0.67154-2.924,1.0073-4.8267,1.0073-2.4064,0-4.3231-0.67155-5.7501-2.0146-1.413-1.3571-2.1196-3.1688-2.1196-5.4353,0-2.6442,0.8814-4.6378,2.6442-5.9809,1.7768-1.3431,4.421-2.0146,7.9326-2.0146h5.4143v-0.37774c-0.00002-1.7768-0.58762-3.1478-1.7628-4.1132-1.1612-0.97932-2.7981-1.469-4.9107-1.469-1.3431,0.00003-2.6512,0.16092-3.9243,0.48268-1.2731,0.3218-2.4973,0.80447-3.6725,1.448v-3.5676c1.413-0.54561,2.7841-0.95133,4.1132-1.2172,1.3291-0.27978,2.6232-0.41969,3.8824-0.41971,3.3997,0.00002,5.939,0.88142,7.6178,2.6442s2.5183,4.435,2.5183,8.0166"/>
   <path id="path2988" d="m340.77,472.53,0,14.186-3.8614,0,0-14.06c-0.00002-2.2245-0.43372-3.8893-1.3011-4.9946-0.86743-1.1052-2.1686-1.6578-3.9034-1.6579-2.0846,0.00002-3.7285,0.66457-4.9317,1.9936-1.2032,1.3291-1.8048,3.1409-1.8048,5.4353v13.284h-3.8824v-23.504h3.8824v3.6515c0.92336-1.413,2.0076-2.4693,3.2528-3.1688,1.2591-0.6995,2.7072-1.0493,4.344-1.0493,2.7002,0.00002,4.7428,0.83945,6.1278,2.5183,1.385,1.6649,2.0776,4.1202,2.0776,7.366"/>
   <path id="path2990" d="m359.19,474.9c-3.1199,0.00001-5.2814,0.35677-6.4846,1.0703s-1.8048,1.9307-1.8048,3.6515c-0.00001,1.3711,0.44769,2.4623,1.3431,3.2738,0.90937,0.79746,2.1405,1.1962,3.6935,1.1962,2.1405,0,3.8544-0.75548,5.1415-2.2665,1.3011-1.525,1.9517-3.5466,1.9517-6.0649v-0.86041h-3.8404m7.7018-1.5949,0,13.41-3.8614,0,0-3.5676c-0.88142,1.427-1.9797,2.4833-3.2948,3.1688-1.3151,0.67154-2.924,1.0073-4.8267,1.0073-2.4064,0-4.3231-0.67155-5.7501-2.0146-1.413-1.3571-2.1196-3.1688-2.1196-5.4353,0-2.6442,0.8814-4.6378,2.6442-5.9809,1.7768-1.3431,4.421-2.0146,7.9326-2.0146h5.4143v-0.37774c-0.00002-1.7768-0.58762-3.1478-1.7628-4.1132-1.1612-0.97932-2.7981-1.469-4.9107-1.469-1.3431,0.00003-2.6512,0.16092-3.9243,0.48268-1.2731,0.3218-2.4973,0.80447-3.6725,1.448v-3.5676c1.413-0.54561,2.7841-0.95133,4.1132-1.2172,1.3291-0.27978,2.6232-0.41969,3.8824-0.41971,3.3997,0.00002,5.939,0.88142,7.6178,2.6442s2.5183,4.435,2.5183,8.0166"/>
   <path id="path2992" d="m390.33,474.69c-0.00002-2.7981-0.58063-4.9666-1.7418-6.5056-1.1472-1.5389-2.7631-2.3084-4.8477-2.3084-2.0706,0.00002-3.6865,0.7695-4.8477,2.3084-1.1472,1.539-1.7208,3.7075-1.7208,6.5056-0.00001,2.7841,0.5736,4.9456,1.7208,6.4846,1.1612,1.539,2.7771,2.3084,4.8477,2.3084,2.0846,0.00001,3.7005-0.76947,4.8477-2.3084,1.1612-1.539,1.7418-3.7005,1.7418-6.4846m3.8614,9.1078c-0.00003,4.0013-0.88842,6.9743-2.6652,8.919-1.7768,1.9587-4.498,2.938-8.1635,2.938-1.3571-0.00001-2.6372-0.10494-3.8404-0.31478-1.2032-0.19588-2.3714-0.50367-3.5046-0.92338v-3.7564c1.1332,0.61558,2.2525,1.0703,3.3577,1.3641,1.1052,0.29379,2.2315,0.44069,3.3787,0.4407,2.5323-0.00001,4.428-0.66456,5.6871-1.9936,1.2591-1.3151,1.8887-3.3088,1.8887-5.9809v-1.9097c-0.79748,1.3851-1.8188,2.4204-3.0639,3.1059-1.2452,0.68553-2.7352,1.0283-4.47,1.0283-2.882,0-5.2045-1.0982-6.9673-3.2948-1.7628-2.1965-2.6442-5.1065-2.6442-8.7301-0.00001-3.6375,0.88139-6.5545,2.6442-8.7511,1.7628-2.1965,4.0852-3.2947,6.9673-3.2948,1.7348,0.00002,3.2248,0.34279,4.47,1.0283,1.2451,0.68556,2.2664,1.7208,3.0639,3.1059v-3.5676h3.8614v20.587"/>
   <path id="path2994" d="m422.25,474,0,1.8887-17.754,0c0.16788,2.6582,0.96534,4.6868,2.3924,6.0859,1.441,1.3851,3.4416,2.0776,6.0019,2.0776,1.483,0,2.917-0.18188,4.3021-0.54563,1.399-0.36375,2.7841-0.90938,4.1552-1.6369v3.6515c-1.3851,0.5876-2.8051,1.0353-4.2601,1.3431-1.455,0.30779-2.931,0.46169-4.428,0.46169-3.7495,0-6.7224-1.0913-8.9189-3.2738-2.1825-2.1825-3.2738-5.1345-3.2738-8.856,0-3.8474,1.0353-6.8973,3.1059-9.1498,2.0846-2.2664,4.8897-3.3997,8.4153-3.3997,3.1618,0.00002,5.6591,1.0213,7.4919,3.0639,1.8467,2.0286,2.7701,4.7918,2.7701,8.2894m-3.8614-1.1332c-0.028-2.1126-0.6226-3.7984-1.7838-5.0576-1.1472-1.2591-2.6722-1.8887-4.5749-1.8887-2.1546,0.00003-3.8824,0.60861-5.1835,1.8258-1.2871,1.2172-2.0286,2.931-2.2245,5.1415l13.767-0.021"/>
   <path id="path2996" d="m446.89,467.72c0.96532-1.7348,2.1195-3.0149,3.4626-3.8404,1.3431-0.82542,2.924-1.2381,4.7428-1.2382,2.4483,0.00002,4.337,0.86044,5.6662,2.5812,1.3291,1.7069,1.9936,4.1412,1.9936,7.303v14.186h-3.8824v-14.06c-0.00003-2.2524-0.39876-3.9243-1.1962-5.0156-0.7975-1.0912-2.0147-1.6369-3.6515-1.6369-2.0007,0.00002-3.5816,0.66457-4.7428,1.9936-1.1612,1.3291-1.7418,3.1409-1.7418,5.4353v13.284h-3.8824v-14.06c-0.00002-2.2664-0.39875-3.9383-1.1962-5.0156-0.79747-1.0912-2.0286-1.6369-3.6935-1.6369-1.9727,0.00002-3.5396,0.67156-4.7008,2.0146-1.1612,1.3291-1.7418,3.1339-1.7418,5.4143v13.284h-3.8824v-23.504h3.8824v3.6515c0.88139-1.441,1.9377-2.5043,3.1688-3.1898,1.2312-0.68551,2.6932-1.0283,4.386-1.0283,1.7068,0.00002,3.1548,0.43373,4.3441,1.3011,1.2032,0.86744,2.0916,2.1266,2.6652,3.7774"/>
   <path id="path2998" d="m490.58,474,0,1.8887-17.754,0c0.16787,2.6582,0.96533,4.6868,2.3924,6.0859,1.441,1.3851,3.4416,2.0776,6.0019,2.0776,1.483,0,2.917-0.18188,4.3021-0.54563,1.399-0.36375,2.7841-0.90938,4.1552-1.6369v3.6515c-1.3851,0.5876-2.8051,1.0353-4.2601,1.3431-1.455,0.30779-2.931,0.46169-4.428,0.46169-3.7495,0-6.7224-1.0913-8.9189-3.2738-2.1825-2.1825-3.2738-5.1345-3.2738-8.856,0-3.8474,1.0353-6.8973,3.1059-9.1498,2.0846-2.2664,4.8897-3.3997,8.4153-3.3997,3.1618,0.00002,5.6591,1.0213,7.4919,3.0639,1.8467,2.0286,2.7701,4.7918,2.7701,8.2894m-3.8614-1.1332c-0.028-2.1126-0.6226-3.7984-1.7838-5.0576-1.1472-1.2591-2.6722-1.8887-4.5749-1.8887-2.1546,0.00003-3.8824,0.60861-5.1835,1.8258-1.2871,1.2172-2.0286,2.931-2.2245,5.1415l13.767-0.021"/>
   <path id="path3000" d="m516.46,472.53,0,14.186-3.8614,0,0-14.06c-0.00002-2.2245-0.43373-3.8893-1.3011-4.9946-0.86743-1.1052-2.1685-1.6578-3.9034-1.6579-2.0846,0.00002-3.7285,0.66457-4.9316,1.9936-1.2032,1.3291-1.8048,3.1409-1.8048,5.4353v13.284h-3.8824v-23.504h3.8824v3.6515c0.92337-1.413,2.0076-2.4693,3.2528-3.1688,1.2591-0.6995,2.7072-1.0493,4.3441-1.0493,2.7002,0.00002,4.7428,0.83945,6.1278,2.5183,1.385,1.6649,2.0776,4.1202,2.0776,7.366"/>
   <path id="path3002" d="m528.02,456.54,0,6.6735,7.9536,0,0,3.001-7.9536,0,0,12.759c-0.00001,1.9167,0.25882,3.1479,0.77647,3.6935,0.53163,0.54563,1.6019,0.81845,3.2108,0.81844h3.9663v3.2318h-3.9663c-2.98,0-5.0366-0.55263-6.1698-1.6579-1.1332-1.1192-1.6998-3.1478-1.6998-6.0859v-12.759h-2.8331v-3.001h2.8331v-6.6735h3.8824"/>
   <path id="path3004" d="m573.71,456.41,0,4.1342c-1.6089-0.76945-3.1269-1.3431-4.5539-1.7208-1.427-0.37772-2.8051-0.56659-4.1342-0.56662-2.3084,0.00003-4.0922,0.44773-5.3514,1.3431-1.2452,0.89542-1.8677,2.1686-1.8677,3.8194,0,1.3851,0.41272,2.4344,1.2382,3.1479,0.83942,0.69955,2.4204,1.2662,4.7428,1.6998l2.5603,0.52464c3.1618,0.60161,5.4912,1.6649,6.9882,3.1898,1.511,1.511,2.2664,3.5396,2.2665,6.0859-0.00002,3.0359-1.0213,5.3374-3.0639,6.9043-2.0286,1.5669-5.0086,2.3504-8.9399,2.3504-1.483,0-3.0639-0.16789-4.7428-0.50366-1.6649-0.33577-3.3927-0.83244-5.1835-1.49v-4.365c1.7208,0.96535,3.4067,1.6929,5.0576,2.1825,1.6509,0.48967,3.2738,0.73451,4.8687,0.7345,2.4203,0.00001,4.2881-0.47567,5.6032-1.427,1.3151-0.95135,1.9726-2.3084,1.9727-4.0712-0.00002-1.5389-0.4757-2.7421-1.427-3.6096-0.93738-0.86739-2.4833-1.518-4.6378-1.9517l-2.5812-0.50366c-3.1619-0.62956-5.4493-1.6159-6.8623-2.959s-2.1196-3.2108-2.1196-5.6032c-0.00001-2.7701,0.97233-4.9526,2.917-6.5476,1.9587-1.5949,4.6518-2.3924,8.0795-2.3924,1.469,0.00003,2.966,0.13294,4.491,0.39873,1.525,0.26585,3.0849,0.66458,4.6798,1.1962"/>
   <path id="path3006" d="m591.82,488.9c-1.0913,2.7981-2.1546,4.6238-3.1898,5.4773-1.0353,0.85341-2.4204,1.2801-4.1552,1.2801h-3.0849v-3.2318h2.2665c1.0633,0,1.8887-0.25183,2.4763-0.75548,0.58759-0.50366,1.2382-1.6929,1.9517-3.5676l0.69253-1.7628-9.5066-23.126h4.0922l7.345,18.384,7.345-18.384h4.0922l-10.325,25.687"/>
   <path id="path3008" d="m622.46,463.9,0,3.6515c-1.0913-0.5596-2.2245-0.97931-3.3997-1.2591s-2.3924-0.4197-3.6515-0.41972c-1.9167,0.00002-3.3577,0.29382-4.3231,0.88141-0.95137,0.58762-1.427,1.469-1.427,2.6442,0,0.89541,0.34277,1.6019,1.0283,2.1196,0.68552,0.50367,2.0636,0.98635,4.1342,1.448l1.3221,0.2938c2.7421,0.58761,4.6868,1.42,5.834,2.4973,1.1612,1.0633,1.7418,2.5533,1.7418,4.47-0.00002,2.1825-0.86743,3.9104-2.6022,5.1835-1.7208,1.2731-4.0922,1.9097-7.1142,1.9097-1.2592,0-2.5743-0.12592-3.9453-0.37775-1.3571-0.23784-2.7911-0.60159-4.3021-1.0913v-3.9873c1.427,0.7415,2.8331,1.3011,4.2181,1.6789,1.385,0.36376,2.7561,0.54563,4.1132,0.54563,1.8188,0,3.2178-0.30779,4.1972-0.92337,0.97932-0.62957,1.469-1.511,1.469-2.6442-0.00001-1.0493-0.35677-1.8537-1.0703-2.4134-0.69954-0.55961-2.2455-1.0982-4.6378-1.6159l-1.3431-0.31479c-2.3924-0.50365-4.1202-1.2731-5.1835-2.3084-1.0633-1.0493-1.5949-2.4833-1.5949-4.3021,0-2.2105,0.78346-3.9173,2.3504-5.1205s3.7914-1.8048,6.6735-1.8048c1.427,0.00002,2.7701,0.10495,4.0293,0.31478,1.2591,0.20988,2.4203,0.52467,3.4836,0.94436"/>
   <path id="path3010" d="m633.71,456.54,0,6.6735,7.9536,0,0,3.001-7.9536,0,0,12.759c-0.00001,1.9167,0.25881,3.1479,0.77647,3.6935,0.53163,0.54563,1.6019,0.81845,3.2108,0.81844h3.9663v3.2318h-3.9663c-2.98,0-5.0366-0.55263-6.1698-1.6579-1.1332-1.1192-1.6998-3.1478-1.6998-6.0859v-12.759h-2.8331v-3.001h2.8331v-6.6735h3.8824"/>
   <path id="path3012" d="m666.86,474,0,1.8887-17.754,0c0.16788,2.6582,0.96534,4.6868,2.3924,6.0859,1.441,1.3851,3.4416,2.0776,6.0019,2.0776,1.483,0,2.917-0.18188,4.3021-0.54563,1.399-0.36375,2.7841-0.90938,4.1552-1.6369v3.6515c-1.3851,0.5876-2.8051,1.0353-4.2601,1.3431-1.455,0.30779-2.931,0.46169-4.428,0.46169-3.7495,0-6.7224-1.0913-8.919-3.2738-2.1825-2.1825-3.2738-5.1345-3.2738-8.856,0-3.8474,1.0353-6.8973,3.1059-9.1498,2.0846-2.2664,4.8897-3.3997,8.4153-3.3997,3.1618,0.00002,5.6591,1.0213,7.4919,3.0639,1.8467,2.0286,2.7701,4.7918,2.7701,8.2894m-3.8614-1.1332c-0.028-2.1126-0.6226-3.7984-1.7838-5.0576-1.1472-1.2591-2.6722-1.8887-4.5749-1.8887-2.1546,0.00003-3.8824,0.60861-5.1835,1.8258-1.2871,1.2172-2.0286,2.931-2.2245,5.1415l13.767-0.021"/>
   <path id="path3014" d="m691.5,467.72c0.96532-1.7348,2.1195-3.0149,3.4626-3.8404,1.3431-0.82542,2.924-1.2381,4.7428-1.2382,2.4483,0.00002,4.337,0.86044,5.6662,2.5812,1.3291,1.7069,1.9936,4.1412,1.9936,7.303v14.186h-3.8824v-14.06c-0.00004-2.2524-0.39876-3.9243-1.1962-5.0156-0.79749-1.0912-2.0147-1.6369-3.6515-1.6369-2.0007,0.00002-3.5816,0.66457-4.7428,1.9936-1.1612,1.3291-1.7418,3.1409-1.7418,5.4353v13.284h-3.8824v-14.06c-0.00002-2.2664-0.39875-3.9383-1.1962-5.0156-0.79748-1.0912-2.0286-1.6369-3.6935-1.6369-1.9727,0.00002-3.5396,0.67156-4.7008,2.0146-1.1612,1.3291-1.7418,3.1339-1.7418,5.4143v13.284h-3.8824v-23.504h3.8824v3.6515c0.88139-1.441,1.9377-2.5043,3.1688-3.1898,1.2312-0.68551,2.6932-1.0283,4.386-1.0283,1.7068,0.00002,3.1548,0.43373,4.344,1.3011,1.2032,0.86744,2.0916,2.1266,2.6652,3.7774"/>
  </g>
 </g>
</svg>